<?xml version="1.0" encoding="UTF-8" standalone="no"?>
<!DOCTYPE svg PUBLIC "-//W3C//DTD SVG 1.1//EN" "http://www.w3.org/Graphics/SVG/1.1/DTD/svg11.dtd">
<svg version="1.1" xmlns="http://www.w3.org/2000/svg" xmlns:xlink="http://www.w3.org/1999/xlink" preserveAspectRatio="xMidYMid meet" viewBox="0 0 640 640" width="640" height="640"><defs><path d="M103.92 98.92C37.81 120.74 -15.96 192.69 4.35 232.14C21.82 266.07 34.69 263.73 54 223.14C69.31 190.96 91.33 162.04 94.18 170.35C95.96 175.53 79.91 227.54 38.1 352.1C0.71 463.46 0.72 475.37 38.13 504.81C48.82 513.21 149.75 515.32 167.8 507.51C251.67 471.22 303.94 375.85 303.94 259.11C303.94 255.25 303.94 235.95 303.94 201.21C296.83 187.06 292.89 179.19 292.1 177.62C259.78 113.22 171.92 76.47 103.92 98.92M210.77 155.5C290.69 196.83 257.7 381.31 159.06 444.61C130.12 463.18 76.47 472.89 71.68 460.42C62.92 437.59 178.24 150.33 196.17 150.33C198.7 150.33 205.27 152.65 210.77 155.5M582.29 188.07C563.91 200.06 513.5 268.81 482.61 324.02C462.38 360.16 463.31 344.82 485.65 273.96C507.03 206.11 507.06 206.54 479.91 193.9C440.56 175.58 419.17 188.9 371.38 261.5C302.9 365.53 258.57 464.64 265.06 499.21C269.64 523.63 312.71 512.83 312.71 487.26C312.71 452.92 369.3 330.41 409.52 277.68C422.07 261.23 422.97 264.34 414.93 296.42C378.84 440.37 387.95 517.74 440.05 509.93C441.11 509.77 446.38 508.98 455.86 507.56C457.29 495.66 458.09 489.05 458.25 487.73C464.2 438.32 507.06 338.36 545.13 285.07C571.47 248.22 573.24 249.58 561.61 297.71C544.57 368.21 535.4 470.55 544.58 487.7C556.11 509.26 575.98 518.96 592.45 511.08C593.1 510.77 596.35 509.22 602.2 506.42C603.55 470.65 604.3 450.78 604.45 446.8C605.69 414.01 608.46 376.13 610.61 362.62C616.73 324.06 628.9 272.34 634.36 261.64C637.75 254.99 639.01 242.84 638.31 223.42C638.24 221.52 637.9 212.03 637.29 194.95C625.71 191.18 619.28 189.08 617.99 188.66C593.64 180.72 593.55 180.72 582.29 188.07" id="but8JX44U"></path></defs><g><g><g><use xlink:href="#but8JX44U" opacity="1" fill="#b50000" fill-opacity="1"></use><g><use xlink:href="#but8JX44U" opacity="1" fill-opacity="0" stroke="#000000" stroke-width="0" stroke-opacity="0"></use></g></g></g></g></svg>